<svg width="24" height="24" viewBox="0 0 24 24" fill="none" xmlns="http://www.w3.org/2000/svg">
<g clip-path="url(#clip0_23_584)">
<path d="M6.40246 15.0987H20.0885C20.5281 15.0995 20.9552 14.9523 21.301 14.6807C21.6467 14.4091 21.8909 14.029 21.9942 13.6017L23.9863 5.42826C24.0065 5.34548 24.0076 5.2592 23.9896 5.17593C23.9715 5.09265 23.9348 5.01457 23.8822 4.94756C23.8295 4.88056 23.7624 4.82639 23.6857 4.78914C23.6091 4.75189 23.525 4.73254 23.4398 4.73254H5.10239L4.31062 1.40765C4.28131 1.28457 4.21135 1.17496 4.11206 1.09654C4.01277 1.01811 3.88993 0.975459 3.7634 0.975464H1.40859C1.09795 0.975464 0.84609 1.22732 0.84609 1.53796C0.84609 1.8486 1.09795 2.10046 1.40859 2.10046H3.31917L3.94593 4.73259H0.560059C0.249371 4.73259 -0.00244141 4.98445 -0.00244141 5.29509C-0.00244141 5.60573 0.249371 5.85759 0.560059 5.85759H22.7237L20.9012 13.3352C20.8081 13.7171 20.4815 13.9737 20.0884 13.9737H6.40246C5.20434 13.9737 4.22962 14.9484 4.22962 16.1465C4.22962 17.3447 5.20434 18.3194 6.40246 18.3194H6.60595C5.72681 18.6914 5.10839 19.5627 5.10839 20.5758C5.10839 21.926 6.2069 23.0245 7.55709 23.0245C8.90728 23.0245 10.0057 21.926 10.0057 20.5758C10.0057 19.5627 9.38737 18.6914 8.50823 18.3194H19.2907C18.4116 18.6914 17.7931 19.5627 17.7931 20.5758C17.7931 21.926 18.8917 23.0245 20.2418 23.0245C21.592 23.0245 22.6905 21.926 22.6905 20.5758C22.6905 19.5627 22.0721 18.6914 21.193 18.3194H21.9971C22.3078 18.3194 22.5596 18.0675 22.5596 17.7569C22.5596 17.4463 22.3078 17.1944 21.9971 17.1944H6.40246C5.82468 17.1944 5.35462 16.7243 5.35462 16.1465C5.35462 15.5688 5.82468 15.0987 6.40246 15.0987ZM7.55714 21.8995C6.82725 21.8995 6.23343 21.3057 6.23343 20.5758C6.23343 19.8459 6.82725 19.2521 7.55714 19.2521C8.28698 19.2521 8.88079 19.8459 8.88079 20.5758C8.88079 21.3057 8.28698 21.8995 7.55714 21.8995ZM20.2419 21.8995C19.512 21.8995 18.9182 21.3057 18.9182 20.5758C18.9182 19.8459 19.512 19.2521 20.2419 19.2521C20.9718 19.2521 21.5656 19.8459 21.5656 20.5758C21.5656 21.3057 20.9718 21.8995 20.2419 21.8995ZM4.0012 8.93793C3.69056 8.93793 3.4387 8.68607 3.4387 8.37543C3.4387 8.06479 3.69056 7.81293 4.0012 7.81293H10.8718C11.1824 7.81293 11.4343 8.06479 11.4343 8.37543C11.4343 8.68607 11.1824 8.93793 10.8718 8.93793H4.0012ZM7.75631 12.0183H0.945324C0.634684 12.0183 0.382824 11.7665 0.382824 11.4558C0.382824 11.1452 0.634684 10.8933 0.945324 10.8933H7.75631C8.06695 10.8933 8.31881 11.1452 8.31881 11.4558C8.31881 11.7665 8.06695 12.0183 7.75631 12.0183Z" fill="white"/>
</g>
<defs>
<clipPath id="clip0_23_584">
<rect width="24" height="24" fill="white"/>
</clipPath>
</defs>
</svg>
