<svg width="24" height="24" viewBox="0 0 24 24" fill="none" xmlns="http://www.w3.org/2000/svg">
<path fill-rule="evenodd" clip-rule="evenodd" d="M19.7771 8.73799C20.1381 9.09899 20.4701 9.43099 20.7251 9.73199C21.0001 10.055 21.2711 10.438 21.4301 10.926C21.6571 11.6237 21.6571 12.3753 21.4301 13.073C21.2711 13.562 21.0001 13.945 20.7251 14.268C20.4701 14.568 20.1381 14.901 19.7771 15.262L15.2621 19.777C14.943 20.1055 14.6114 20.4218 14.2681 20.725C13.9451 21 13.5611 21.271 13.0731 21.43C12.3753 21.6563 11.6239 21.6563 10.9261 21.43C10.4381 21.271 10.0561 21 9.73113 20.725C9.43113 20.47 9.09913 20.138 8.73813 19.777L4.22313 15.262C3.8946 14.9428 3.57837 14.6113 3.27513 14.268C3.00013 13.945 2.72913 13.562 2.57013 13.073C2.34316 12.3753 2.34316 11.6237 2.57013 10.926C2.72913 10.438 3.00013 10.056 3.27513 9.73199C3.52913 9.43199 3.86113 9.09899 4.22313 8.73799L8.73813 4.22299C9.09913 3.86199 9.43113 3.52999 9.73113 3.27499C10.0551 2.99999 10.4381 2.72899 10.9261 2.56999C11.6238 2.34302 12.3755 2.34302 13.0731 2.56999C13.5621 2.72899 13.9451 2.99999 14.2681 3.27499C14.5681 3.52999 14.9001 3.86099 15.2621 4.22299L19.7771 8.73799ZM17.4341 8.50099L18.6871 9.75399C19.4741 10.54 19.8671 10.934 20.0141 11.387C20.1441 11.785 20.1441 12.215 20.0141 12.613C19.8671 13.067 19.4741 13.46 18.6871 14.246L17.4341 15.499H15.9211C15.8073 15.4976 15.695 15.4719 15.5919 15.4236C15.4888 15.3753 15.3971 15.3055 15.3231 15.219L13.3771 13.079C13.2028 12.887 12.9902 12.7336 12.7531 12.6286C12.5159 12.5236 12.2595 12.4694 12.0001 12.4694C11.7408 12.4694 11.4843 12.5236 11.2472 12.6286C11.01 12.7336 10.7975 12.887 10.6231 13.079L8.67613 15.219C8.60223 15.3054 8.51076 15.3751 8.40782 15.4234C8.30488 15.4716 8.19282 15.4974 8.07913 15.499H6.56513L5.31213 14.246C4.52613 13.46 4.13313 13.066 3.98613 12.613C3.85779 12.2144 3.85779 11.7856 3.98613 11.387C4.13313 10.933 4.52613 10.54 5.31213 9.75399L6.56513 8.50099H8.08013C8.28913 8.50099 8.50613 8.59099 8.67713 8.78099L10.6241 10.921C10.7985 11.113 11.011 11.2664 11.2482 11.3714C11.4853 11.4764 11.7418 11.5306 12.0011 11.5306C12.2605 11.5306 12.5169 11.4764 12.7541 11.3714C12.9912 11.2664 13.2038 11.113 13.3781 10.921L15.3241 8.78099C15.3981 8.69445 15.4898 8.6247 15.5929 8.57642C15.696 8.52813 15.8083 8.50242 15.9221 8.50099H17.4341ZM15.9451 7.01199H15.9211C15.2691 7.01199 14.6591 7.29799 14.2211 7.77899L12.2761 9.91999C12.2414 9.95854 12.199 9.98936 12.1516 10.0105C12.1043 10.0316 12.053 10.0425 12.0011 10.0425C11.9493 10.0425 11.898 10.0316 11.8506 10.0105C11.8032 9.98936 11.7608 9.95854 11.7261 9.91999L9.77813 7.77999C9.56413 7.54034 9.30229 7.34818 9.00949 7.21591C8.71669 7.08363 8.39942 7.01417 8.07813 7.01199H8.05413L9.75413 5.31199C10.5401 4.52599 10.9341 4.13299 11.3861 3.98599C11.7861 3.85599 12.2151 3.85599 12.6131 3.98599C13.0671 4.13299 13.4601 4.52599 14.2461 5.31299L15.9451 7.01199ZM15.9211 16.988H15.9451L14.2451 18.688C13.4601 19.474 13.0671 19.867 12.6131 20.014C12.2151 20.144 11.7851 20.144 11.3861 20.014C10.9331 19.867 10.5401 19.474 9.75413 18.687L8.05413 16.987H8.07913C8.73113 16.987 9.34013 16.702 9.77813 16.221L11.7251 14.08C11.7598 14.0414 11.8022 14.0106 11.8496 13.9895C11.897 13.9684 11.9483 13.9575 12.0001 13.9575C12.052 13.9575 12.1033 13.9684 12.1506 13.9895C12.198 14.0106 12.2404 14.0414 12.2751 14.08L14.2221 16.22C14.4361 16.4596 14.698 16.6518 14.9908 16.7841C15.2836 16.9164 15.6008 16.9858 15.9221 16.988" fill="#012F43"/>
</svg>
